# xmcd
#
# Track frame offsets:
#	150
#	30437
#	48142
#	70023
#	80623
#	94007
#	110707
#	119871
#	138689
#	161631
#
# Disc length: 2433 seconds
#
# Revision: 0
# Processed by: cddbd v1.5.2PL0 Copyright (c) Steve Scherf et al.
# Submitted via: EZCDAudioConverter 2.2.2.1
#
DISCID=88097f0a
DTITLE=Κατσιμίχας Χάρης και Πάνος - Όταν σου λέω πορτοκάλι να βγαίνεις
DYEAR=1900
DGENRE=
TTITLE0=Σήματα μόρς
TTITLE1=Νύχτωσε, νύχτα
TTITLE2=Το κορίτσι με τα σπίρτα
TTITLE3=Η βεζυροπούλα με το σαζί
TTITLE4=Η συνέλευση των ποντικιών
TTITLE5=Καταγγέλω
TTITLE6=Εχεμύθεια
TTITLE7=Η Μαΐμού
TTITLE8=όταν σου λέω πορτοκάλι να βγαίνεις
TTITLE9=Είμαστε ακόμα εδώ
EXTD=
EXTT0=
EXTT1=
EXTT2=
EXTT3=
EXTT4=
EXTT5=
EXTT6=
EXTT7=
EXTT8=
EXTT9=
PLAYORDER=
